<?xml version="1.0" encoding="UTF-8"?><svg id="b" xmlns="http://www.w3.org/2000/svg" viewBox="0 0 290.77 94.72"><path d="M27.69,77.77h28.82c4.15,0,7.52,3.36,7.52,7.52v1.93c0,4.15-3.36,7.52-7.52,7.52H7.52c-4.15,0-7.52-3.36-7.52-7.52V7.52C0,3.36,3.36,0,7.52,0H55.78c4.15,0,7.52,3.36,7.52,7.52v1.78c0,4.15-3.36,7.52-7.52,7.52H27.69c-4.15,0-7.52,3.36-7.52,7.52v6.31c0,4.15,3.36,7.52,7.52,7.52h21.1c7.55,2.98,10.74,4.45,10.16,9.21h0c-.53,3.7-6.66,7.46-10.4,7.46H27.69c-4.15,0-7.52,3.36-7.52,7.52v7.92c0,4.15,3.36,7.52,7.52,7.52Z" style="fill:#e24729;"/><path d="M147.58,49.92c2.78,2.29,4.82,4.9,6.14,7.82,1.32,2.92,1.97,5.99,1.97,9.21,0,8.87-3.12,15.71-9.36,20.54-6.24,4.82-15.16,7.24-26.75,7.24h-29.61c-4.15,0-7.52-3.36-7.52-7.52V7.52c0-4.15,3.36-7.52,7.52-7.52h27.13c7.5,0,13.86,1.05,19.08,3.14,5.21,2.1,9.14,5.02,11.77,8.77,2.63,3.75,3.95,8.16,3.95,13.23,0,4.19-1.22,8.06-3.65,11.62-.5,.73-1.05,1.42-1.65,2.08-2.96,3.24-2.49,8.23,.91,11.01,.03,.02,.06,.05,.08,.07Zm-44.95-26.03v7.04c0,4.15,3.36,7.52,7.52,7.52h4.16c10.83,0,16.25-3.85,16.25-11.55,0-3.41-1.21-6.02-3.62-7.82-2.41-1.8-5.93-2.7-10.56-2.7h-6.22c-4.15,0-7.52,3.36-7.52,7.52Zm27.85,50.88c2.58-2.19,3.87-5.14,3.87-8.84s-1.34-6.48-4.02-8.62c-2.68-2.14-6.75-3.22-12.21-3.22h-7.97c-4.15,0-7.52,3.36-7.52,7.52v8.94c0,4.15,3.36,7.52,7.52,7.52h7.38c6.06,0,10.38-1.1,12.96-3.29Z" style="fill:#00a1e9;"/><path d="M249.11,7.52v2.66c0,4.15-3.36,7.52-7.52,7.52h-15.08c-4.15,0-7.52,3.36-7.52,7.52v62.01c0,4.15-3.36,7.52-7.52,7.52h-5.14c-4.15,0-7.52-3.36-7.52-7.52V25.2c0-4.15-3.36-7.52-7.52-7.52h-15.23c-4.15,0-7.52-3.36-7.52-7.52v-2.66c0-4.15,3.36-7.52,7.52-7.52h65.51c4.15,0,7.52,3.36,7.52,7.52Z" style="fill:#f2b829;"/><path d="M270.59,87.21V7.52c0-4.15,3.36-7.52,7.52-7.52h5.14c4.15,0,7.52,3.36,7.52,7.52V87.21c0,4.15-3.36,7.52-7.52,7.52h-5.14c-4.15,0-7.52-3.36-7.52-7.52Z" style="fill:#8fc31f;"/></svg>